# xmcd CD database file generated by Grip 3.2.0
# 
# Track frame offsets:
#       150
#       12815
#       27497
#       40740
#       52217
#       66667
#       79787
#       94557
#       108977
#       122440
#       135887
#       148512
#       160935
#       174395
#       190090
#       202577
#       216402
#       229045
# 
# Disc length: 3244 seconds
# 
# Revision: 6
# Processed by: cddbd v1.5.1PL0 Copyright (c) Steve Scherf et al.
# Submitted via: Grip 3.2.0
# 
DISCID=ed0caa12
DTITLE=Compilations - The Beauty Of The Blues: Roots N' Blues Sampler
DYEAR=1991
DGENRE=Blues
TTITLE0=Robert Johnson - Traveling Riverside Blues
TTITLE1=Blind Willie McTell as Blind Sammie - Southern Can Is Mine
TTITLE2=Amédée Breaux - Vas Y Carrément (Step It Fast)
TTITLE3=Buddy Woods with the Wampus Cats - Don't Sell It (Don't Give It Away)
TTITLE4=Willie "Long Time" Smith - Homeless Blues
TTITLE5=Big Three Trio - Signifying Monkey
TTITLE6=Lonnie Johnson - No More Troubles Now
TTITLE7=Big Bill Broonzy - Horny Frog
TTITLE8=Hunter and Jenkins - Lollypop
TTITLE9=Lonnie Johnson and Eddie Lang - Hot Fingers
TTITLE10=Blind Boy Fuller - You've Got Something There
TTITLE11=Memphis Minnie - I Hate To See The Sun Go Down
TTITLE12=Arizona Dranes - God's Got A Crown
TTITLE13=Bessie Smith - Tain't Nobody's Bizness If I Do
TTITLE14=Big Joe and His Washboard Band - If You Care To Take Me Back
TTITLE15=Leadbelly - You Don't Know My Mind
TTITLE16=Jazz Gillum as Bill McKinley - Is That A Monkey You Got?
TTITLE17=Bessie Smith - St. Louis Blues
EXTD=YEAR: 1991
EXTT0=
EXTT1=
EXTT2=
EXTT3=
EXTT4=
EXTT5=
EXTT6=
EXTT7=
EXTT8=
EXTT9=
EXTT10=
EXTT11=
EXTT12=
EXTT13=
EXTT14=
EXTT15=
EXTT16=
EXTT17=
PLAYORDER=
